<svg width="214" height="202" viewBox="0 0 214 202" fill="none" xmlns="http://www.w3.org/2000/svg">
<path d="M68.9429 150.169C54.8766 140.036 53.2129 132.019 53.9691 126.877C54.7254 121.734 67.2792 122.188 67.8842 122.188C68.4892 122.188 69.2454 114.625 67.2792 113.113C62.2879 108.575 55.4816 106.609 48.6754 103.282C42.0203 99.9542 42.7766 100.408 36.2728 94.9629L36.4241 94.8117C43.2303 84.2241 49.4316 75.6029 54.2716 69.0991C61.9854 58.6628 70.0017 47.924 82.1017 35.219C86.488 30.6815 90.2692 26.9002 92.9918 24.4802C89.3617 27.0515 85.278 30.379 81.043 34.614C77.8667 37.7902 75.2954 40.8153 73.0267 43.689C72.8754 35.5215 73.7829 15.8589 86.488 5.27139C87.2442 4.66639 88.4542 3.30514 90.5717 2.39763C102.672 -2.74488 111.596 1.33888 126.418 5.72514C137.006 4.21264 149.862 6.33015 161.659 9.50641C166.953 10.8677 171.793 13.7414 174.818 18.2789C179.961 26.2952 182.835 35.824 184.196 41.1178C184.498 42.479 189.49 50.4953 195.237 56.6966C196.598 58.2091 197.808 60.0241 198.413 61.9903C202.043 73.3341 199.926 77.8716 193.422 81.9554C191.456 83.3166 188.885 83.7704 186.465 83.6191C169.373 82.8629 163.323 84.2241 158.634 88.6104C157.273 86.1904 156.517 84.0729 155.609 82.5604C155.307 81.8041 154.853 81.3504 154.248 81.1991C152.131 80.2916 148.047 83.3166 146.837 86.9466C145.778 90.2742 147.291 93.2992 147.896 94.2067C145.778 92.9967 143.358 91.9379 140.787 90.7279C138.064 89.5179 135.342 88.6104 132.922 87.7029C135.644 86.7954 138.972 85.4341 142.299 83.1654C149.408 78.4766 153.643 72.7291 155.761 69.0991C146.081 82.2579 133.678 88.0054 127.023 84.5266C121.729 81.8041 120.671 72.7291 119.914 64.7128C119.763 62.2928 119.007 52.6128 123.696 42.7815C125.359 39.454 126.418 38.3952 127.174 37.7902C133.527 32.9502 144.266 37.9415 145.627 38.6977C145.022 38.244 136.249 31.7402 128.384 35.219C122.939 37.639 120.973 43.084 119.158 48.3778C115.982 57.3016 117.343 65.4691 118.553 72.5779C119.158 75.9054 119.914 78.3254 120.519 79.8379C121.427 82.2579 122.486 84.2241 123.393 85.5854C122.183 85.4341 120.519 85.1316 118.704 85.1316C114.318 84.8291 110.991 85.1316 109.781 85.2829C108.873 85.4341 105.394 85.8879 101.159 87.0979C98.2855 88.0054 95.8655 88.9129 94.0505 89.8204C101.159 87.2491 107.361 86.6441 111.444 86.4929C123.242 86.1904 131.863 89.8204 137.762 92.3917C139.123 92.9967 140.636 93.7529 142.299 94.8117C146.988 98.1392 149.257 102.525 150.316 105.399C148.954 107.063 146.837 109.029 143.812 109.483C140.182 110.088 138.064 107.97 130.804 103.887C123.091 99.6517 119.158 97.5342 114.923 97.9879C112.503 98.2904 110.386 99.5004 105.999 102.072C102.067 104.492 97.5293 107.214 93.143 112.205C88.7567 117.197 86.9417 121.734 86.6392 122.642C85.7317 124.911 84.673 127.633 84.9755 131.112C85.1267 134.288 86.1855 136.859 86.9417 138.221C87.698 139.431 88.908 141.094 90.5717 142.758C94.353 146.539 100.252 149.716 119.914 150.623C135.493 151.228 143.207 151.682 152.736 148.657C161.811 145.783 168.012 141.699 172.852 138.372C161.962 202.805 82.4042 223.828 42.4741 171.647C45.9529 172.857 49.8854 174.067 54.5741 175.428C55.7841 175.731 56.9941 175.428 57.9016 174.672C66.8254 166.051 74.2367 155.161 68.9429 150.169Z" fill="#F43434"/>
<path d="M10.409 127.33C11.4678 136.859 15.2491 154.404 29.3153 164.992C36.2729 170.286 43.6841 172.101 43.6841 172.101C43.6841 172.101 26.7441 168.471 14.3416 155.161C3.14902 143.212 0.275255 129.145 0.124005 125.062C-0.329747 117.045 0.124003 101.92 7.38403 84.9803C15.5516 66.074 28.1053 54.8815 34.6091 49.8902C28.7103 55.9402 20.3916 66.074 14.9466 80.7453C14.0391 83.1653 9.65278 95.2654 9.35028 111.752C9.19903 118.104 9.80403 123.398 10.409 127.33Z" fill="#F43434"/>
<path d="M172.096 138.826C178.448 133.986 182.986 129.448 185.708 126.12C188.128 123.398 191.305 120.978 195.691 114.474C196.901 112.659 200.077 108.727 205.522 106.307C208.547 105.097 211.27 104.643 213.236 104.643C210.967 105.702 207.64 107.668 204.615 111.147C202.043 114.02 200.833 116.743 200.38 117.499C198.262 121.734 191.607 128.843 171.793 141.699C171.793 140.792 171.945 139.884 172.096 138.826Z" fill="#F43434"/>
</svg>
